<?xml version="1.0" encoding="UTF-8" standalone="no"?>
<!DOCTYPE svg PUBLIC "-//W3C//DTD SVG 1.0//EN" "http://www.w3.org/TR/2001/PR-SVG-20010719/DTD/svg10.dtd">
<svg width="72cm" height="46cm" viewBox="-104 -1 1425 903" xmlns="http://www.w3.org/2000/svg" xmlns:xlink="http://www.w3.org/1999/xlink">
  <g>
    <rect style="fill: #ffffff" x="180" y="100" width="1140" height="680"/>
    <rect style="fill: none; fill-opacity:0; stroke-width: 2; stroke: #000000" x="180" y="100" width="1140" height="680"/>
    <rect style="fill: #ffffff" x="180" y="64" width="196.5" height="36"/>
    <rect style="fill: none; fill-opacity:0; stroke-width: 2; stroke: #000000" x="180" y="64" width="196.5" height="36"/>
    <text style="fill: #000000;text-anchor:start;font-size:12.7998;font-family:monospace;font-style:normal;font-weight:normal" x="182" y="79">&lt;&lt;Proxy&gt;&gt;</text>
    <text style="fill: #000000;text-anchor:start;font-size:12.7998;font-family:monospace;font-style:normal;font-weight:normal" x="182" y="95">WebApplicationPlayerProxy</text>
  </g>
  <g>
    <rect style="fill: #ffffff" x="-20" y="220" width="119.8" height="28"/>
    <rect style="fill: none; fill-opacity:0; stroke-width: 2; stroke: #000000" x="-20" y="220" width="119.8" height="28"/>
    <rect style="fill: #ffffff" x="-20" y="202" width="30" height="18"/>
    <rect style="fill: none; fill-opacity:0; stroke-width: 2; stroke: #000000" x="-20" y="202" width="30" height="18"/>
    <text style="fill: #000000;text-anchor:start;font-size:12.7998;font-family:monospace;font-style:normal;font-weight:normal" x="-14" y="237.9">
      <tspan x="-14" y="237.9">WebApplication</tspan>
    </text>
  </g>
  <g>
    <rect style="fill: #ffffff" x="860" y="0" width="100.7" height="36"/>
    <rect style="fill: none; fill-opacity:0; stroke-width: 2; stroke: #000000" x="860" y="0" width="100.7" height="36"/>
    <text style="fill: #000000;text-anchor:middle;font-size:12.7998;font-family:sanserif;font-style:normal;font-weight:normal" x="910.35" y="21.9">
      <tspan x="910.35" y="21.9">ACPC Dealer</tspan>
    </text>
    <line style="fill: none; fill-opacity:0; stroke-width: 1; stroke: #000000" x1="870" y1="24.9" x2="950.7" y2="24.9"/>
  </g>
  <g>
    <rect style="fill: #ffffff" x="240" y="220" width="283.3" height="58"/>
    <rect style="fill: none; fill-opacity:0; stroke-width: 2; stroke: #000000" x="240" y="220" width="283.3" height="58"/>
    <text style="fill: #000000;text-anchor:middle;font-size:12.8;font-family:monospace;font-style:normal;font-weight:normal" x="381.65" y="236">&lt;&lt;Communicator&gt;&gt;</text>
    <text style="fill: #000000;text-anchor:middle;font-size:16;font-family:sanserif;font-style:normal;font-weight:700" x="381.65" y="255">WebApplicationCommunicator</text>
    <text style="fill: #000000;text-anchor:middle;font-size:11.2;font-family:sanserif;font-style:normal;font-weight:normal" x="381.65" y="270.5">Communicates with the web application.</text>
  </g>
  <g>
    <rect style="fill: #ffffff" x="600" y="140" width="640" height="560"/>
    <rect style="fill: none; fill-opacity:0; stroke-width: 2; stroke: #000000" x="600" y="140" width="640" height="560"/>
    <rect style="fill: #ffffff" x="600" y="104" width="65.6" height="36"/>
    <rect style="fill: none; fill-opacity:0; stroke-width: 2; stroke: #000000" x="600" y="104" width="65.6" height="36"/>
    <text style="fill: #000000;text-anchor:start;font-size:12.7998;font-family:monospace;font-style:normal;font-weight:normal" x="602" y="119">&lt;&lt;Bot&gt;&gt;</text>
    <text style="fill: #000000;text-anchor:start;font-size:12.7998;font-family:monospace;font-style:normal;font-weight:normal" x="602" y="135">ProxyBot</text>
  </g>
  <g>
    <rect style="fill: #ffffff" x="760" y="180" width="243.25" height="128"/>
    <rect style="fill: none; fill-opacity:0; stroke-width: 2; stroke: #000000" x="760" y="180" width="243.25" height="128"/>
    <text style="fill: #000000;text-anchor:middle;font-size:12.8;font-family:monospace;font-style:normal;font-weight:normal" x="881.625" y="196">&lt;&lt;Communicator&gt;&gt;</text>
    <text style="fill: #000000;text-anchor:middle;font-size:16;font-family:sanserif;font-style:normal;font-weight:700" x="881.625" y="215">AcpcDealerCommunicator</text>
    <text style="fill: #000000;text-anchor:middle;font-size:11.2;font-family:sanserif;font-style:normal;font-weight:normal" x="881.625" y="230.5">Communication service to the ACPC</text>
    <text style="fill: #000000;text-anchor:middle;font-size:11.2;font-family:sanserif;font-style:normal;font-weight:normal" x="881.625" y="244.5">Dealer. It acts solely as an</text>
    <text style="fill: #000000;text-anchor:middle;font-size:11.2;font-family:sanserif;font-style:normal;font-weight:normal" x="881.625" y="258.5">abstraction of the communication</text>
    <text style="fill: #000000;text-anchor:middle;font-size:11.2;font-family:sanserif;font-style:normal;font-weight:normal" x="881.625" y="272.5">protocal and implements the main Ruby</text>
    <text style="fill: #000000;text-anchor:middle;font-size:11.2;font-family:sanserif;font-style:normal;font-weight:normal" x="881.625" y="286.5">communication interface through 'gets'</text>
    <text style="fill: #000000;text-anchor:middle;font-size:11.2;font-family:sanserif;font-style:normal;font-weight:normal" x="881.625" y="300.5">and 'puts' methods.</text>
  </g>
  <g>
    <line style="fill: none; fill-opacity:0; stroke-width: 2; stroke-dasharray: 8; stroke: #000000" x1="771.564" y1="167.539" x2="892.722" y2="36.9943"/>
    <polygon style="fill: #000000" points="767.9,164.138 760.68,179.267 775.229,170.941 "/>
    <polygon style="fill: none; fill-opacity:0; stroke-width: 2; stroke: #000000" points="767.9,164.138 760.68,179.267 775.229,170.941 "/>
    <text style="fill: #000000;text-anchor:middle;font-size:12.7998;font-family:sanserif;font-style:normal;font-weight:normal" x="826.361" y="118.497">gets</text>
  </g>
  <g>
    <line style="fill: none; fill-opacity:0; stroke-width: 2; stroke: #000000" x1="921.242" y1="36.9943" x2="1003.25" y2="180"/>
    <polyline style="fill: none; fill-opacity:0; stroke-width: 2; stroke: #000000" points="933.539,48.3867 921.242,36.9943 921.242,36.9943 "/>
    <text style="fill: #000000;text-anchor:middle;font-size:12.7998;font-family:sanserif;font-style:normal;font-weight:normal" x="962.246" y="118.497">puts</text>
  </g>
  <g>
    <rect style="fill: #ffffff" x="620" y="360" width="218.7" height="72"/>
    <rect style="fill: none; fill-opacity:0; stroke-width: 2; stroke: #000000" x="620" y="360" width="218.7" height="72"/>
    <text style="fill: #000000;text-anchor:middle;font-size:12.8;font-family:monospace;font-style:normal;font-weight:normal" x="729.35" y="376">&lt;&lt;Game Logic&gt;&gt;</text>
    <text style="fill: #000000;text-anchor:middle;font-size:16;font-family:sanserif;font-style:normal;font-weight:700" x="729.35" y="395">ActionSender</text>
    <text style="fill: #000000;text-anchor:middle;font-size:11.2;font-family:sanserif;font-style:normal;font-weight:normal" x="729.35" y="410.5">Sends poker actions according to the</text>
    <text style="fill: #000000;text-anchor:middle;font-size:11.2;font-family:sanserif;font-style:normal;font-weight:normal" x="729.35" y="424.5">ACPC protocol.</text>
  </g>
  <g>
    <rect style="fill: #ffffff" x="960" y="380" width="238" height="58"/>
    <rect style="fill: none; fill-opacity:0; stroke-width: 2; stroke: #000000" x="960" y="380" width="238" height="58"/>
    <text style="fill: #000000;text-anchor:middle;font-size:12.8;font-family:monospace;font-style:normal;font-weight:normal" x="1079" y="396">&lt;&lt;Game Logic&gt;&gt;</text>
    <text style="fill: #000000;text-anchor:middle;font-size:16;font-family:sanserif;font-style:normal;font-weight:700" x="1079" y="415">MatchstateReceiver</text>
    <text style="fill: #000000;text-anchor:middle;font-size:11.2;font-family:sanserif;font-style:normal;font-weight:normal" x="1079" y="430.5">Receives and parses matchstate strings.</text>
  </g>
  <g>
    <line style="fill: none; fill-opacity:0; stroke-width: 2; stroke: #000000" x1="816.64" y1="308.867" x2="766.424" y2="358.993"/>
    <polyline style="fill: none; fill-opacity:0; stroke-width: 2; stroke: #000000" points="808.849,323.709 816.64,308.867 816.64,308.867 "/>
    <text style="fill: #000000;text-anchor:middle;font-size:12.7998;font-family:sanserif;font-style:normal;font-weight:normal" x="791.532" y="323.93">puts</text>
  </g>
  <g>
    <line style="fill: none; fill-opacity:0; stroke-width: 2; stroke-dasharray: 8; stroke: #000000" x1="1030.08" y1="368.106" x2="959.351" y2="308.977"/>
    <polygon style="fill: #000000" points="1026.87,371.942 1042.36,378.368 1033.29,364.27 "/>
    <polygon style="fill: none; fill-opacity:0; stroke-width: 2; stroke: #000000" points="1026.87,371.942 1042.36,378.368 1033.29,364.27 "/>
    <text style="fill: #000000;text-anchor:middle;font-size:12.7998;font-family:sanserif;font-style:normal;font-weight:normal" x="1001.24" y="333.993">gets</text>
  </g>
  <g>
    <line style="fill: none; fill-opacity:0; stroke-width: 2; stroke: #000000" x1="315.236" y1="542.454" x2="374.862" y2="278.993"/>
    <polygon style="fill: #000000" points="310.359,541.35 311.704,558.059 320.112,543.557 "/>
    <polygon style="fill: none; fill-opacity:0; stroke-width: 2; stroke: #000000" points="310.359,541.35 311.704,558.059 320.112,543.557 "/>
    <text style="fill: #000000;text-anchor:middle;font-size:12.7998;font-family:sanserif;font-style:normal;font-weight:normal" x="286.505" y="440">send_action</text>
  </g>
  <g>
    <rect style="fill: #ffffff" x="640" y="500" width="92.95" height="36" rx="10" ry="10"/>
    <rect style="fill: none; fill-opacity:0; stroke-width: 2; stroke: #000000" x="640" y="500" width="92.95" height="36" rx="10" ry="10"/>
    <text style="fill: #000000;text-anchor:middle;font-size:12.7998;font-family:sanserif;font-style:normal;font-weight:normal" x="686.475" y="521.9">
      <tspan x="686.475" y="521.9">MatchState</tspan>
    </text>
  </g>
  <g>
    <rect style="fill: #ffffff" x="820" y="540" width="111.9" height="70"/>
    <rect style="fill: none; fill-opacity:0; stroke-width: 2; stroke: #000000" x="820" y="540" width="111.9" height="70"/>
    <rect style="fill: #ffffff" x="800" y="554" width="40" height="14"/>
    <rect style="fill: none; fill-opacity:0; stroke-width: 2; stroke: #000000" x="800" y="554" width="40" height="14"/>
    <rect style="fill: #ffffff" x="800" y="582" width="40" height="14"/>
    <rect style="fill: none; fill-opacity:0; stroke-width: 2; stroke: #000000" x="800" y="582" width="40" height="14"/>
    <text style="fill: #000000;text-anchor:start;font-size:12.7998;font-family:sanserif;font-style:normal;font-weight:normal" x="848" y="565.9">
      <tspan x="848" y="565.9">Game Logic</tspan>
    </text>
  </g>
  <g>
    <line style="fill: none; fill-opacity:0; stroke-width: 2; stroke: #000000" x1="753.621" y1="433" x2="823.149" y2="538.995"/>
    <polyline style="fill: none; fill-opacity:0; stroke-width: 2; stroke: #000000" points="766.577,443.636 753.621,433 753.621,433 "/>
    <text style="fill: #000000;text-anchor:middle;font-size:12.7998;font-family:sanserif;font-style:normal;font-weight:normal" x="788.385" y="475.998">send_action</text>
  </g>
  <g>
    <line style="fill: none; fill-opacity:0; stroke-width: 2; stroke-dasharray: 8; stroke: #000000" x1="931.095" y1="528.358" x2="1041.83" y2="438.993"/>
    <polygon style="fill: #000000" points="927.955,524.467 918.644,538.406 934.236,532.249 "/>
    <polygon style="fill: none; fill-opacity:0; stroke-width: 2; stroke: #000000" points="927.955,524.467 918.644,538.406 934.236,532.249 "/>
    <text style="fill: #000000;text-anchor:middle;font-size:12.7998;font-family:sanserif;font-style:normal;font-weight:normal" x="979.85" y="479.013">receive_matchstate_string</text>
  </g>
  <g>
    <rect style="fill: #ffffff" x="260" y="560" width="120.35" height="70"/>
    <rect style="fill: none; fill-opacity:0; stroke-width: 2; stroke: #000000" x="260" y="560" width="120.35" height="70"/>
    <rect style="fill: #ffffff" x="240" y="574" width="40" height="14"/>
    <rect style="fill: none; fill-opacity:0; stroke-width: 2; stroke: #000000" x="240" y="574" width="40" height="14"/>
    <rect style="fill: #ffffff" x="240" y="602" width="40" height="14"/>
    <rect style="fill: none; fill-opacity:0; stroke-width: 2; stroke: #000000" x="240" y="602" width="40" height="14"/>
    <text style="fill: #000000;text-anchor:start;font-size:12.7998;font-family:sanserif;font-style:normal;font-weight:normal" x="288" y="585.9">
      <tspan x="288" y="585.9">Control Logic</tspan>
    </text>
  </g>
  <g>
    <line style="fill: none; fill-opacity:0; stroke-width: 2; stroke: #000000" x1="783.014" y1="589.68" x2="381.339" y2="605.752"/>
    <polygon style="fill: #000000" points="783.214,594.676 799.001,589.04 782.814,584.684 "/>
    <polygon style="fill: none; fill-opacity:0; stroke-width: 2; stroke: #000000" points="783.214,594.676 799.001,589.04 782.814,584.684 "/>
    <text style="fill: #000000;text-anchor:middle;font-size:12.7998;font-family:sanserif;font-style:normal;font-weight:normal" x="539.069" y="618.267">send_action</text>
  </g>
  <g>
    <line style="fill: none; fill-opacity:0; stroke-width: 2; stroke-dasharray: 8; stroke: #000000" x1="398.261" y1="599.58" x2="800" y2="561"/>
    <polygon style="fill: #000000" points="397.783,594.603 382.334,601.11 398.739,604.558 "/>
    <polygon style="fill: none; fill-opacity:0; stroke-width: 2; stroke: #000000" points="397.783,594.603 382.334,601.11 398.739,604.558 "/>
    <text style="fill: #000000;text-anchor:middle;font-size:12.7998;font-family:sanserif;font-style:normal;font-weight:normal" x="599.069" y="567.971">update_match_state!</text>
  </g>
  <g>
    <line style="fill: none; fill-opacity:0; stroke-width: 2; stroke-dasharray: 8; stroke: #000000" x1="258.797" y1="543.043" x2="240" y2="278"/>
    <polygon style="fill: #000000" points="253.81,543.396 259.929,559.003 263.785,542.689 "/>
    <polygon style="fill: none; fill-opacity:0; stroke-width: 2; stroke: #000000" points="253.81,543.396 259.929,559.003 263.785,542.689 "/>
    <text style="fill: #000000;text-anchor:middle;font-size:12.7998;font-family:sanserif;font-style:normal;font-weight:normal" x="250" y="429">receive_action!</text>
  </g>
  <g>
    <line style="fill: none; fill-opacity:0; stroke-width: 2; stroke: #000000" x1="238.996" y1="248.494" x2="99.8" y2="248"/>
    <polyline style="fill: none; fill-opacity:0; stroke-width: 2; stroke: #000000" points="222.978,253.437 238.996,248.494 238.996,248.494 "/>
    <text style="fill: #000000;text-anchor:middle;font-size:12.7998;font-family:sanserif;font-style:normal;font-weight:normal" x="169.398" y="258.247">take_action!</text>
  </g>
  <g>
    <line style="fill: none; fill-opacity:0; stroke-width: 2; stroke: #000000" x1="99.8" y1="220" x2="240" y2="220"/>
    <polyline style="fill: none; fill-opacity:0; stroke-width: 2; stroke: #000000" points="115.8,215 99.8,220 99.8,220 "/>
    <text style="fill: #000000;text-anchor:middle;font-size:12.7998;font-family:sanserif;font-style:normal;font-weight:normal" x="169.9" y="230">state_is_updated!</text>
  </g>
  <g>
    <rect style="fill: #ffffff" x="300" y="720" width="92.95" height="36" rx="10" ry="10"/>
    <rect style="fill: none; fill-opacity:0; stroke-width: 2; stroke: #000000" x="300" y="720" width="92.95" height="36" rx="10" ry="10"/>
    <text style="fill: #000000;text-anchor:middle;font-size:12.7998;font-family:sanserif;font-style:normal;font-weight:normal" x="346.475" y="741.9">
      <tspan x="346.475" y="741.9">MatchState</tspan>
    </text>
  </g>
  <g>
    <line style="fill: none; fill-opacity:0; stroke-width: 2; stroke: #000000" x1="97.55" y1="896" x2="320.175" y2="630"/>
    <polyline style="fill: none; fill-opacity:0; stroke-width: 2; stroke: #000000" points="103.985,880.521 97.55,896 97.55,896 "/>
    <text style="fill: #000000;text-anchor:middle;font-size:12.7998;font-family:sanserif;font-style:normal;font-weight:normal" x="208.862" y="773">update_match!</text>
  </g>
  <g>
    <rect style="fill: #ffffff" x="0" y="860" width="97.55" height="36"/>
    <rect style="fill: none; fill-opacity:0; stroke-width: 2; stroke: #000000" x="0" y="860" width="97.55" height="36"/>
    <text style="fill: #000000;text-anchor:middle;font-size:12.7998;font-family:sanserif;font-style:normal;font-weight:normal" x="48.775" y="881.9">
      <tspan x="48.775" y="881.9">MatchModel</tspan>
    </text>
    <line style="fill: none; fill-opacity:0; stroke-width: 1; stroke: #000000" x1="10" y1="884.9" x2="87.55" y2="884.9"/>
  </g>
  <g>
    <line style="fill: none; fill-opacity:0; stroke-width: 2; stroke-dasharray: 8; stroke: #000000" x1="40.1395" y1="264.998" x2="48.5073" y2="858.995"/>
    <polygon style="fill: #000000" points="45.139,264.928 39.9141,249 35.14,265.069 "/>
    <polygon style="fill: none; fill-opacity:0; stroke-width: 2; stroke: #000000" points="45.139,264.928 39.9141,249 35.14,265.069 "/>
    <text style="fill: #000000;text-anchor:middle;font-size:12.7998;font-family:sanserif;font-style:normal;font-weight:normal" x="44.2036" y="563.498">query_match</text>
  </g>
  <g>
    <line style="fill: none; fill-opacity:0; stroke-width: 2; stroke: #000000" x1="-0.555259" y1="843.009" x2="-20" y2="248"/>
    <polygon style="fill: #000000" points="-5.55259,843.172 -0.0326623,859.001 4.44207,842.846 "/>
    <polygon style="fill: none; fill-opacity:0; stroke-width: 2; stroke: #000000" points="-5.55259,843.172 -0.0326623,859.001 4.44207,842.846 "/>
    <text style="fill: #000000;text-anchor:middle;font-size:12.7998;font-family:sanserif;font-style:normal;font-weight:normal" x="-60" y="600">&lt;&lt;create&gt;&gt;</text>
  </g>
  <g>
    <line style="fill: none; fill-opacity:0; stroke-width: 2; stroke-dasharray: 8; stroke: #000000" x1="248.977" y1="642.942" x2="64.916" y2="859.049"/>
    <polygon style="fill: #000000" points="252.784,646.184 259.352,630.761 245.171,639.7 "/>
    <polygon style="fill: none; fill-opacity:0; stroke-width: 2; stroke: #000000" points="252.784,646.184 259.352,630.761 245.171,639.7 "/>
    <text style="fill: #000000;text-anchor:middle;font-size:12.7998;font-family:sanserif;font-style:normal;font-weight:normal" x="162.458" y="754.524">query_dealer_parameters</text>
  </g>
</svg>
